<?xml version="1.0" encoding="utf-8"?>
<!-- Generator: Adobe Illustrator 22.1.0, SVG Export Plug-In . SVG Version: 6.00 Build 0)  -->
<svg version="1.1" id="Warstwa_1" xmlns="http://www.w3.org/2000/svg" xmlns:xlink="http://www.w3.org/1999/xlink" x="0px" y="0px"
	 viewBox="0 0 226.8 85" style="enable-background:new 0 0 226.8 85;" xml:space="preserve">
<style type="text/css">
	.st0{fill:#227EAE;}
</style>
<path class="st0" d="M85.2,35.9h1.6v0.3c0.1,1.6,0.2,1.8,0.9,2c0.5,0.2,2,0.2,4.4,0.2c3.7,0,5.2,0,5.2-2.1c0-1.9-0.6-1.9-3.6-2h-4
	c-4,0-4.5-1.5-4.5-3.5c0-3.4,2.7-3.5,7.4-3.5c4.3,0,5.9,0.4,5.9,3.7h-1.7v-0.2c0-1.4-0.3-1.7-1.4-1.9c-0.7-0.1-1.7-0.2-3-0.2
	c-4.1,0-5.6,0.2-5.6,2.1c0,1.5,0.3,1.8,2.8,2c0.4,0,2.2,0,5.5,0.1c3,0.1,3.8,1.1,3.8,3.3c0,3.2-1.3,3.7-8,3.7c-3.2,0-4-0.1-4.8-0.7
	c-0.8-0.6-1-1.3-1-2.5V35.9z"/>
<polygon class="st0" points="98.7,27.4 100.9,27.4 106.9,33.3 112.7,27.4 115,27.4 107.7,34.7 107.7,39.8 106.1,39.8 106.1,34.7 "/>
<path class="st0" d="M114.9,35.9h1.6v0.3c0.1,1.6,0.2,1.8,0.9,2c0.5,0.2,2,0.2,4.4,0.2c3.7,0,5.2,0,5.2-2.1c0-1.9-0.6-1.9-3.6-2h-4
	c-4,0-4.5-1.5-4.5-3.5c0-3.4,2.7-3.5,7.4-3.5c4.3,0,5.9,0.4,5.9,3.7h-1.7v-0.2c0-1.4-0.3-1.7-1.4-1.9c-0.7-0.1-1.7-0.2-3-0.2
	c-4.1,0-5.6,0.2-5.6,2.1c0,1.5,0.3,1.8,2.8,2c0.4,0,2.2,0,5.5,0.1c3,0.1,3.8,1.1,3.8,3.3c0,3.2-1.3,3.7-8,3.7c-3.2,0-4-0.1-4.8-0.7
	c-0.8-0.6-1-1.3-1-2.5V35.9z"/>
<polygon class="st0" points="129.2,27.4 143.3,27.4 143.3,28.8 137.1,28.8 137.1,39.8 135.4,39.8 135.4,28.8 129.2,28.8 "/>
<polygon class="st0" points="144.2,39.8 144.2,27.4 156.4,27.4 156.4,28.8 145.9,28.8 145.9,32.6 156,32.6 156,34.1 145.9,34.1 
	145.9,38.4 156.4,38.4 156.4,39.8 "/>
<polygon class="st0" points="157.6,27.4 160.9,27.4 167.6,37.9 174.3,27.4 177.6,27.4 177.6,39.8 176,39.8 176,28.9 175.3,28.9 
	168.3,39.8 167,39.8 160,28.9 159.3,28.9 159.3,39.8 157.6,39.8 "/>
<polygon class="st0" points="85.1,45.2 88.9,45.2 88.9,49.7 91,49.7 95.9,45.1 101.7,45.1 94.5,51.3 102.3,57.6 96.6,57.6 91,52.9 
	88.9,52.9 88.9,57.6 85.1,57.6 "/>
<path class="st0" d="M113.9,52.8l-2.4-4.7h-0.8l-2.4,4.7H113.9z M116.3,57.6l-1.1-2.1H107l-1.1,2.1h-4.3l6.6-12.4h5.9l6.5,12.4
	H116.3z"/>
<polygon class="st0" points="121.2,45.2 127.8,45.2 134.3,54.5 134.7,54.5 134.7,45.2 138.5,45.2 138.5,57.6 131.9,57.6 125.3,48.3 
	124.9,48.3 124.9,57.6 121.2,57.6 "/>
<rect x="139.3" y="51.9" class="st0" width="7.9" height="2.5"/>
<path class="st0" d="M148.9,46.8h3.3v2h5.2v2.3h-5.2v2.6c0,1.6,0.3,1.8,1.3,1.8c1,0,1.3-0.2,1.3-1.3v-0.4h3c-0.1,3.3-0.9,4-4.6,4
	c-3.2,0-4.3-0.5-4.3-3v-3.7h-1.7v-2.3h1.7V46.8z"/>
<path class="st0" d="M158.8,45.2h3.3v5h0.1c0.5-1.1,1.7-1.6,3.7-1.6c3.4,0,4.8,0.9,4.8,4.8v4.3h-3.3v-4.3c0-1.9-0.4-2.3-2.6-2.3
	c-2.4,0-2.8,0.6-2.8,2.8v3.8h-3.3V45.2z"/>
<path class="st0" d="M180.5,52.1c0-1.4-0.7-1.5-2.5-1.5c-2.4,0-2.7,0.4-2.8,1.5H180.5z M183.7,54.8c-0.2,2.7-1.9,3-6.2,3
	c-4.9,0-5.7-0.8-5.7-4.6c0-3,0.5-3.8,2.1-4.3c0.7-0.2,2-0.3,3.9-0.3c3.4,0,4.2,0.2,5,1c0.7,0.7,0.9,1.8,0.9,3.5c0,0.1,0,0.4,0,0.9
	h-8.6c0,1.6,0.5,1.8,2.6,1.8c1.6,0,2.5,0,2.6-0.9H183.7z"/>
<path class="st0" d="M185.1,48.8h3.1v1.3h0.1c0.6-1.1,1.6-1.5,3.4-1.5c2.9,0,3.6,1.2,3.6,3.6c0,0.1,0,0.3,0,0.6h-3.1v-0.1
	c0-1.3-0.5-1.6-1.7-1.6c-1.6,0-2.1,0.7-2.1,2.9v3.7h-3.3V48.8z"/>
<path class="st0" d="M196.2,48.8h3.1v1.3h0.1c0.5-1,1.7-1.5,3.6-1.5c2.1,0,3.3,0.5,4,1.8c0.7-1.6,2.1-1.8,3.8-1.8
	c3.5,0,4.6,1.2,4.6,4.9v4.1h-3.3v-4.1c0-1.8-0.1-2.4-2.2-2.4c-2.1,0-2.4,0.6-2.4,2.9v3.6h-3.3v-4.1c0-2.2-0.3-2.4-2.2-2.4
	c-2.2,0-2.5,0.6-2.5,2.9v3.6h-3.3V48.8z"/>
<path class="st0" d="M17.8,32.8c1.7-3.6,4-6.5,6.6-9.4c8-9.2,26.9-12.2,38.4,4.1c4.6,6.9,7.7,14,10.3,21.6l-6.2,0
	c-2.4-2.6-5-5.4-7.4-8l1.9,8.1l-4.9,0l-2.6-14.4c1.6,0,3.2,0,4.9,0l6.5,7.2c-1.4-4.7-3.3-9.2-5.8-13.3c-7.5-13.5-24.9-12.1-31.8-4.4
	c-2.3,2.6-4,5.3-5.4,8.5L17.8,32.8z M30.8,34.8l-4.9,0l-5.5,4.6l1.5-4.5l-4.8,0c-1.3,2.9-4.6,10-5.5,15.7c-0.3,2.1-0.1,3.7,0.3,5.8
	c3.4,10,15.2,12.4,25.3,12.9c9.8,0.3,21.6-0.9,28.1-4c4.3-2,9.4-6.5,8.5-14.1l-6.3,0c0.2,3.3-0.7,6.5-2.3,8.2
	c-5.8,6.2-18.2,6.7-27.1,6.2c-9.1-0.8-14.9-1.9-18.7-7.5c-1.9-3.2-1.8-6-1.3-9.5l1.2-4.2l2.7-1.9l2.7,6.6l6.3,0l-5.7-9.5L30.8,34.8z
	 M31.9,49.2l7.5-14.4h6.2l7.5,14.4h-6.4l-1.2-2.8l-6.2,0l-1.2,2.8H31.9z"/>
</svg>
