<?xml version="1.0" encoding="utf-8"?>
<!-- Generator: Adobe Illustrator 22.1.0, SVG Export Plug-In . SVG Version: 6.00 Build 0)  -->
<svg version="1.1" id="Warstwa_1" xmlns="http://www.w3.org/2000/svg" xmlns:xlink="http://www.w3.org/1999/xlink" x="0px" y="0px"
	 viewBox="0 0 170.1 170.1" style="enable-background:new 0 0 170.1 170.1;" xml:space="preserve">
<style type="text/css">
	.st0{fill:#227EAE;}
	.st1{clip-path:url(#SVGID_2_);fill:#FFFFFF;}
</style>
<rect y="0" class="st0" width="170.1" height="170.1"/>
<g>
	<defs>
		<rect id="SVGID_1_" width="170.1" height="170.1"/>
	</defs>
	<clipPath id="SVGID_2_">
		<use xlink:href="#SVGID_1_"  style="overflow:visible;"/>
	</clipPath>
	<path class="st1" d="M35.4,65.5c3.4-7.2,8-13,13.1-18.7c16.1-18.3,53.9-24.4,76.7,8.2c9.3,13.9,15.4,28.1,20.6,43.2l-12.4,0
		c-4.8-5.3-10-10.8-14.8-16.1l3.8,16.1l-9.9,0l-5.3-28.8c3.2,0,6.4,0.1,9.7,0.1l13.1,14.5c-2.8-9.5-6.6-18.3-11.6-26.6
		c-15-27-49.8-24.2-63.6-8.8c-4.7,5.2-8,10.6-10.8,16.9L35.4,65.5z M61.3,69.4l-9.9,0l-11,9.1l3-9.1l-9.6,0
		c-2.7,5.9-9.3,20-10.9,31.4c-0.6,4.1-0.3,7.5,0.6,11.6c6.8,19.9,30.5,24.7,50.5,25.8c19.6,0.6,43.2-1.9,56.2-7.9
		c8.5-4,18.7-12.9,16.9-28.2l-12.6,0.1c0.4,6.6-1.4,13.1-4.6,16.4c-11.5,12.3-36.4,13.4-54.2,12.4c-18.1-1.5-29.9-3.7-37.3-15
		c-3.7-6.5-3.6-12-2.5-18.9l2.4-8.3l5.3-3.7l5.5,13.2l12.6-0.1L50.3,79L61.3,69.4z M63.7,98.2l15-28.9h12.5l15,28.9H93.3l-2.4-5.6
		l-12.4-0.1l-2.5,5.6H63.7z"/>
</g>
</svg>
